<svg width="52" height="45" viewBox="0 0 52 45" fill="none" xmlns="http://www.w3.org/2000/svg">
<path d="M1.96734 23.1723C9.63632 15.277 23.4522 1 25.1133 1C27.7926 1 31.5751 5.72811 32.5207 6.83133C27.1511 7.59119 13.8489 11.868 2.27897 22.9116C10.1814 16.4982 44.3545 2.37117 48.9115 10.4562V14.0054C48.9164 14.0825 48.9164 14.1603 48.9115 14.2387V14.0054C48.6021 9.12662 28.7723 7.10095 1 24.1677C1.223 23.8675 1.54914 23.5337 1.96734 23.1723Z" fill="white"/>
<path d="M14.7115 17.5484L8.88018 20.2276C13.4507 24.9032 23.2351 34.8409 24.9557 35.988C26.3742 36.9336 27.0046 36.776 27.635 36.3032C32.3631 31.6276 42.103 21.8352 43.2378 20.07C44.3725 18.3049 42.765 16.3926 41.8193 15.6571C37.3014 20.1751 28.0448 29.4002 27.1622 30.1567C26.2796 30.9132 25.3235 30.4719 24.9557 30.1567L14.7115 19.5972V17.5484Z" fill="white"/>
<path d="M1 24.1677C8.40737 16.5502 23.3797 1 25.1133 1C27.7926 1 31.5751 5.72811 32.5207 6.83133C26.9521 7.61935 12.8518 12.1899 1 24.1677ZM1 24.1677C5.09769 18.6516 44.0258 1.78802 48.9115 10.4562V14.2387C49.2267 9.19539 29.211 6.83133 1 24.1677ZM8.88018 20.2276L14.7115 17.5484V19.5972L24.9557 30.1567C25.3235 30.4719 26.2796 30.9132 27.1622 30.1567C28.0448 29.4002 37.3014 20.1751 41.8193 15.6571C42.765 16.3926 44.3725 18.3049 43.2378 20.07C42.103 21.8352 32.3631 31.6276 27.635 36.3032C27.0046 36.776 26.3742 36.9336 24.9557 35.988C23.2351 34.8409 13.4507 24.9032 8.88018 20.2276Z" stroke="white"/>
<path d="M51.1918 15.1843C52.0744 11.9062 49.9835 10.0359 48.8278 9.51059C56.8655 21.4885 7.06281 52.0636 17.6223 31.8903C9.11166 40.0857 13.367 45.6576 19.1983 43.2378C42.366 33.6239 50.0886 19.282 51.1918 15.1843Z" fill="#999999" stroke="#999999"/>
</svg>
